<svg xmlns="http://www.w3.org/2000/svg" xml:space="preserve" width="40px" height="40px" version="1.1" style="shape-rendering:geometricPrecision; text-rendering:geometricPrecision; image-rendering:optimizeQuality; fill-rule:evenodd; clip-rule:evenodd" x="0" y="0"
viewBox="0 0 823.49 659.94">
 <defs>
  <style type="text/css">
   <![CDATA[
    .fil2 {fill:#026932}
    .fil1 {fill:#B9D8C5}
    .fil0 {fill:#DBECE2}
   ]]>
  </style>
 </defs>
 <g id="Layer_x0020_1">
  <path class="fil0" d="M403.79 634.71l-9.09 -2.85c2.17,2.8 5.5,2.85 9.09,2.85z"/>
  <path class="fil1" d="M443.71 627.83c2.8,0.2 2.28,-0.61 3.11,-2.32l-3.11 2.32z"/>
  <path class="fil2" d="M435.32 245.39c0,26.55 67.23,76.68 31.58,91.37 -29.75,12.26 -13.04,85.32 -72.04,68.14 -61.04,-17.77 -36.78,-47.05 -21.12,-81.45 13.91,-30.55 31.69,-68.63 48.07,-96.49 23.03,-39.15 50.47,-44.51 99.08,-44.54 22.49,-0.01 115.55,9.11 71.63,41.18 -45.15,32.97 -28.9,80.92 -66.29,77.61 -51.73,-4.59 -71.99,-48.16 -90.9,-55.81zm-109.06 106.32c-39.34,-1.64 -85.29,-31.54 -59.85,-72.63 10.02,-16.18 30.18,-21.46 28.38,-41.91 -2.75,-31.17 18.6,-24.35 41.48,-21.56 98.31,11.99 16.3,-7.55 -12.35,-26 -59.79,-38.5 -32.88,-47.79 -11.71,-82.08 21.22,-34.36 -1.05,-102.94 54.17,-41.03 26.94,30.2 40.93,56.25 50.54,94.03 10.26,40.32 -14.38,68.83 -35.05,102.23 -5.23,8.46 -55.02,88.46 -55.61,88.96zm-26.66 -159.43c-46.52,0 -23.06,28.4 -25.16,46.08 -0.86,7.21 -26.17,19.31 -32.02,47.89 -9.35,45.73 41.34,89.43 80.78,71.25l-2.19 -0.5 -9.93 43.56 9.26 4.96 28.88 -30.94 -1.44 -1.35c16.36,18.82 43.72,87.88 101.04,36.13 21.76,-19.64 16.2,-49.12 25.72,-53.63 23.18,-10.97 40.78,-5.93 23.7,-44.46 35.7,3.1 66.77,50.58 91.13,-17.85 15.98,-44.9 68.3,-63.89 67.03,-77.11 -5.24,-54.95 -167.61,-49.91 -216.18,-18.14l-4.6 -5.22 98.54 -88.63c-9.3,5.04 -73.62,38.39 -76.15,42.07l-5.36 -89.25c-2.38,19.89 -19.1,105.12 -23.88,131.35l-6.26 -1.14c0,-58.26 -59.83,-186.53 -114.49,-187.37 -26.55,-0.41 -6.07,62.09 -41.36,103.31 -44.35,51.8 28.47,72.41 32.92,88.97z"/>
  <g id="_2178264430608">
   <path class="fil2" d="M599.91 591.1l0 -52.12c0,-16.16 13.77,-12.44 13.77,-3.93l0 59.99c0,8.51 -13.77,12.22 -13.77,-3.93zm-21.64 -59.99c0,11.8 -1.71,69 1.61,76.08l1.35 2.58c0.66,1.28 0.81,1.94 1.78,3.14 4.48,5.55 11.51,5.73 17.88,5.73 7.08,0 8.31,-1.57 12.78,-3.93l-0.98 27.54c-5.77,0.13 -3.08,1.36 -5.94,1.37 -1.46,0 -0.59,0.04 -2.42,-0.75 -1.63,-0.7 -2.25,-1.03 -3.45,-1.6l-0.98 -18.69 -21.64 0c0,24.35 0.13,37.37 31.47,37.37 4.37,0 6.49,-0.42 10.41,-1.39 1.35,-0.33 3.69,-1.08 4.44,-1.46 1.32,-0.68 1.1,-0.66 1.78,-1.17 0.23,-0.17 0.85,-0.72 1.07,-0.9l1.07 -0.9c4.67,-4.03 6.8,-10.2 6.8,-18.77l0 -121.95 -18.69 0 0 2.95c-7.93,-0.66 0.16,-4.92 -20.65,-4.92 -10.61,0 -17.7,8.8 -17.7,19.67z"/>
   <path class="fil2" d="M266.52 596.01l0 -55.07c0,-5.46 0.98,-5.83 0.98,-10.82 1.91,-0.45 12.78,-5.97 12.78,4.92l0 62.94c0,13.52 -13.77,10.2 -13.77,-1.97zm13.77 -80.64c-8.68,-5.81 -23.55,-5.86 -31.05,2.39 -3.31,3.64 -4.35,8.81 -4.35,15.32 0,12.67 -0.89,67.06 0.92,75.79 1.01,4.86 -0.44,0.78 1.58,4.32l2.25 3.65c1.32,1.99 2.85,3.56 5.89,4.93 12.71,5.75 24.09,-2.82 27.71,-3.12 1.19,2.96 -2.15,1.46 3.82,2.08 4.24,0.44 15.84,1.26 15.84,-3.06l0 -144.57c0,-5.75 -8.94,-3.93 -18.69,-3.93 -5.89,0 -3.93,11.29 -3.93,20.65 0,8.52 0,17.05 0,25.57z"/>
   <path class="fil2" d="M799.55 605.85c-4,0.33 -11.8,3.18 -11.8,-6.88l0 -61.96c0,-6.02 1.9,-8.85 7.87,-8.85 5.78,0 5.9,6.9 5.9,12.78l0 56.06c0,4.18 -1.13,5.37 -1.97,8.85zm-10.82 -90.48c-0.22,-0.08 -0.52,-0.56 -0.62,-0.37 -0.1,0.19 -0.49,-0.29 -0.63,-0.36 -3.93,-1.81 -21.37,-3.31 -21.37,1.7l0 142.6 21.64 0 0 -40.32c14.93,10 35.4,5.3 35.4,-14.75 0,-12.91 1.29,-72.37 -1.16,-80.47 -1.59,-5.27 -2,-5.92 -6.71,-9.02 -6.91,-4.54 -22.95,-3.94 -26.55,0.98z"/>
   <path class="fil2" d="M-0 472.1l0 148.5 21.64 0 0 -40.32 15.85 35.36c1.54,2.83 1.63,1.37 0.87,4.96l23.6 0c-1.03,-3.85 0.11,0.04 -1.45,-3.46 -0.71,-1.58 -1.02,-2.22 -1.54,-3.38 -1.05,-2.34 -1.68,-4.58 -2.74,-7.09l-15.01 -34.23c-0.12,-0.26 -0.5,-0.96 -0.61,-1.19 -0.07,-0.14 -0.2,-0.41 -0.26,-0.54l-1.9 -4.23c-4.04,-8.3 -3.06,-7.77 4.06,-19.42 1.69,-2.76 1.59,-3.91 3.04,-6.79 1.75,-3.47 2.29,-2.67 3.91,-5.92 1.39,-2.8 1.23,-3.89 3.1,-6.74 2.28,-3.47 6.36,-10.12 6.45,-14.2 -23.28,0 -19.18,-4.42 -28.41,14.86 -2.31,4.84 -5.88,13.36 -8.96,15.62l0 -59.01c0.01,-17.98 3.05,-15.74 -18.69,-15.74 -2.27,0 -2.95,0.68 -2.95,2.95z"/>
   <path class="fil2" d="M351.09 535.04l0 20.65c0,3.82 2.2,0.97 0.07,3.02 -1.45,1.4 0.86,-0.07 -8.92,-0.07 -3.82,0 -0.97,2.2 -3.02,0.07 -2.1,-2.18 0.07,0.92 0.07,-3.02 0,-6.79 -1.21,-22.03 0.83,-24.66 4.95,-6.39 9.71,-0.44 11.96,1.06 -0.67,1.2 -0.98,1.05 -0.98,2.95zm-35.4 2.95l0 58.02c0,3.71 0.92,0.08 1.79,5.09 0.76,4.38 0.02,5.02 2.65,11.12 2.36,5.47 7.93,8.09 13.66,9.94 9.83,3.18 24.59,1.87 32.8,-4.75 4.34,-3.5 6.26,-9.39 6.92,-14.57 0.02,-0.17 0.04,-0.46 0.07,-0.63 0.74,-4.2 1.12,1.45 1.12,-3.26 0,-23.98 4.31,-19.67 -19.67,-19.67 -7.34,0 -2.84,18.21 -3.68,22.43 -0.83,4.17 -7.68,7.9 -11.62,1.69 -2.4,-3.78 -0.43,-0.77 -0.43,-4.45l0 -18.69c0,-5.07 -6.18,-2.93 9.82,-2.94 31.79,-0.01 25.59,6.12 25.59,-26.56 0,-7.38 1.03,-10.63 -0.88,-17.7l-0.33 -1.2c-3.77,-18.77 -13.33,-20.44 -33.2,-20.44 -11.27,0 -18.53,5.35 -21.99,15.45 -0.07,0.21 -0.18,0.48 -0.25,0.68 -1.28,3.98 -0.17,1.77 -0.62,5.37 -0.66,5.31 -1.73,1 -1.73,5.06z"/>
   <path class="fil2" d="M83.59 604.86c-2.06,-8.83 -0.98,-21.09 -0.98,-30.49 0,-5.1 13.77,-9.48 13.77,-3.93 0,16.88 4.3,42.62 -12.78,34.42zm-21.64 -70.81l0 12.78c25.38,0 21.64,2.65 21.64,-16.72 15.71,-7.54 12.78,9.3 12.78,20.65 -13.16,3.07 -29.98,-0.44 -35.32,18.77 -2.41,8.67 -2.05,0.3 -2.05,5.82l0 26.55c0,0.35 3.84,13.16 5.6,15.05 7.12,7.7 19.23,8.21 26.03,4.76 4.44,-2.25 3.14,-3.1 7.36,-1.86 4.1,1.21 4.39,0.78 9.19,0.74 3.61,-0.03 7.22,-0.01 10.83,-0.01l0 -88.51c0,-4.49 -0.04,0.7 -1.13,-3.25 -0.5,-1.82 -2.59,-8.02 -5.28,-11l-4.12 -2.76c-0.2,-0.1 -0.47,-0.21 -0.68,-0.31l-2.62 -1.31c-5.9,-2.72 -42.24,-8.44 -42.24,20.6z"/>
   <path class="fil2" d="M195.71 596.01c0,-29.3 -1.28,-25.01 13.77,-28.52l0.04 29.54c-0.31,5.73 -1.59,3.86 -2.01,8.81 -6.42,0 -11.8,3.72 -11.8,-9.83zm-20.65 -61.96l0 12.78c22.46,0 21.65,1.77 21.75,-5.79 0.04,-3.21 -0.11,-6.68 -0.11,-9.94 16.03,-10.74 12.78,10.06 12.78,19.67 -4.39,1.02 -9.73,0.98 -13.96,1.77 -24.71,4.62 -22.43,21.56 -22.43,40.52 0,6.24 0.96,17.85 2.95,21.63 4.52,8.57 19.49,11.65 29.83,6.13 0.2,-0.11 0.44,-0.28 0.64,-0.38 1.44,-0.74 0.58,-0.53 1.86,-0.85 2.42,-0.62 -0.03,-0.3 1.63,-0.05 11.21,1.73 6.78,1.06 21.11,1.06l0 -87.53c0,-14.77 -10.91,-21.64 -24.59,-21.64 -11.53,0 -22.11,-0.62 -27.75,9.62 -2.41,4.37 -3.72,6.9 -3.72,13z"/>
   <path class="fil2" d="M694.32 601.91c0,6.42 1.24,12.82 4.73,15.92 6.28,5.59 17.35,7.55 25.07,4.03 0.07,-0.03 2.07,-1.39 3.14,-1.92 4.48,-2.18 1.33,0.78 13.27,0.67 3.61,-0.03 7.23,-0.02 10.84,-0.02l0 -104.25c0,-4.92 -8.38,-2.95 -21.64,-2.95l0 84.58c0,11.94 -12.72,11.41 -13.71,1.91l-0.05 -74.69c0.12,-14.04 2.24,-11.79 -21.64,-11.79l0 88.51z"/>
   <path class="fil2" d="M406.17 513.4l-17.7 0 0 107.2c24.85,0 21.81,2.08 21.65,-9.82l-0.02 -63.94c-0,-9.11 -2.26,-18.69 6.88,-18.69 7.81,0 7.87,7.42 7.87,15.74l0 76.71c13.26,0 21.64,1.97 21.64,-2.95 0,-14.76 2.02,-86.86 -2.96,-96.37 -6.16,-11.75 -21.01,-11.73 -30.32,-7.6 -7.88,3.5 -1.45,-0.28 -7.04,-0.28z"/>
   <path class="fil2" d="M489.76 516.35l0 13.77 23.6 0 -22.47 66.04c-4.15,9.86 -3.1,9.18 -3.1,21.49 0,2.27 0.68,2.95 2.95,2.95l45.24 0 0 -15.74 -25.57 0 22.17 -64.37c4.77,-12.14 3.4,-5.15 3.4,-24.14 0,-2.27 -0.68,-2.95 -2.95,-2.95l-40.32 0c-2.27,0 -2.95,0.68 -2.95,2.95z"/>
   <path class="fil2" d="M152.44 516.35c-1.28,-4.78 -3.81,-2.95 -20.65,-2.95l0 107.2 21.64 0 0 -75.73c0,-15.75 8.96,-14.75 20.65,-14.75l0 -18.69c-6.55,0 -10.6,-0.63 -16.17,1.53 -4.05,1.58 -2.51,1.4 -5.47,3.38z"/>
   <path class="fil2" d="M671.7 516.35c-4.7,-3.44 0.93,-2.1 -4.91,-2.96 -1.58,-0.23 -6,-0 -7.89,-0.01 -15.84,-0.07 -7.85,1.43 -7.85,4.94l0 102.28 21.64 0 0 -79.66c0,-0.02 -1.95,-3.68 3.34,-8.45 3.39,-3.06 10.56,-2.36 15.34,-2.36l0 -18.69c-6.47,0 -8.4,-0.52 -14.26,1.48 -6.27,2.14 -0.87,0.11 -5.41,3.44z"/>
   <path class="fil2" d="M460.26 516.35l0 104.25c13.26,0 21.64,1.97 21.64,-2.95l0 -104.25c-13.26,0 -21.64,-1.97 -21.64,2.95z"/>
   <path class="fil2" d="M459.27 506.52c0,5.82 9.4,3.93 19.67,3.93 5.82,0 3.93,-9.4 3.93,-19.67 0,-5.06 -9.71,-2.95 -23.6,-2.95l0 18.69z"/>
  </g>
 </g>
</svg>